<?xml version="1.0" encoding="UTF-8" standalone="no"?>
<svg
   xmlns:dc="http://purl.org/dc/elements/1.1/"
   xmlns:cc="http://creativecommons.org/ns#"
   xmlns:rdf="http://www.w3.org/1999/02/22-rdf-syntax-ns#"
   xmlns:svg="http://www.w3.org/2000/svg"
   xmlns="http://www.w3.org/2000/svg"
   xmlns:sodipodi="http://sodipodi.sourceforge.net/DTD/sodipodi-0.dtd"
   xmlns:inkscape="http://www.inkscape.org/namespaces/inkscape"
   version="1.1"
   x="0px"
   y="0px"
   viewBox="0 0 490 150"
   enable-background="new 0 0 128 128"
   xml:space="preserve"
   id="svg917"
   sodipodi:docname="align.svg"
   width="490"
   height="150"
   inkscape:version="0.92.5 (2060ec1f9f, 2020-04-08)"
   inkscape:export-filename="/home/Gregory.Kiar/code/nmind/nmind.github.io/assets/images/align.png"
   inkscape:export-xdpi="107.76"
   inkscape:export-ydpi="107.76"><metadata
     id="metadata923"><rdf:RDF><cc:Work
         rdf:about=""><dc:format>image/svg+xml</dc:format><dc:type
           rdf:resource="http://purl.org/dc/dcmitype/StillImage" /><dc:title></dc:title></cc:Work></rdf:RDF></metadata><defs
     id="defs921" /><sodipodi:namedview
     pagecolor="#ffffff"
     bordercolor="#666666"
     borderopacity="1"
     objecttolerance="10"
     gridtolerance="10"
     guidetolerance="10"
     inkscape:pageopacity="0"
     inkscape:pageshadow="2"
     inkscape:window-width="1868"
     inkscape:window-height="1136"
     id="namedview919"
     showgrid="false"
     fit-margin-top="0"
     fit-margin-left="0"
     fit-margin-right="0"
     fit-margin-bottom="0"
     inkscape:zoom="1.0584505"
     inkscape:cx="15.402859"
     inkscape:cy="-33.873047"
     inkscape:window-x="52"
     inkscape:window-y="27"
     inkscape:window-maximized="1"
     inkscape:current-layer="svg917" /><g
     id="g1075"
     transform="translate(34.662286)"><text
       id="text927"
       y="91.271996"
       x="177.07303"
       style="font-style:normal;font-variant:normal;font-weight:normal;font-stretch:normal;font-size:40px;line-height:1.25;font-family:Montserrat;-inkscape-font-specification:Montserrat;letter-spacing:0px;word-spacing:0px;fill:#000000;fill-opacity:1;stroke:none"
       xml:space="preserve"><tspan
         style="font-size:74.66666412px"
         y="91.271996"
         x="177.07303"
         id="tspan925"
         sodipodi:role="line">Align</tspan></text>
<g
       id="g1259"
       transform="matrix(1.7976685,0,0,1.7976685,52.986856,5.1107284)"><path
         id="path1188"
         d="m 62.12,22.59 a 2.3,2.3 0 0 0 -1.63,-0.68 2.46,2.46 0 0 0 -0.91,0.18 2.41,2.41 0 0 0 -1.38,2 l -1.42,13.23 0.35,0.08 a 3.27,3.27 0 0 1 1.41,5.65 l -8.13,7 a 0.57,0.57 0 0 1 -0.39,0.14 0.63,0.63 0 0 1 -0.47,-0.2 0.61,0.61 0 0 1 -0.14,-0.45 0.63,0.63 0 0 1 0.21,-0.42 l 8.11,-7 a 2,2 0 0 0 0.71,-1.54 2,2 0 0 0 -0.29,-1.06 2,2 0 0 0 -1.71,-1 h -0.29 a 2,2 0 0 0 -1.12,0.51 L 42.2,50.87 a 1.79,1.79 0 0 0 -0.6,1.35 V 64 h 10.25 v -4.79 a 3.09,3.09 0 0 1 0.81,-2.08 L 62.3,46.68 a 1.8,1.8 0 0 0 0.49,-1.24 V 24.21 a 2.29,2.29 0 0 0 -0.67,-1.62 z"
         inkscape:connector-curvature="0" /><path
         id="path1190"
         d="M 9,39.06 A 1.9,1.9 0 0 0 7.86,38.57 H 7.6 a 2,2 0 0 0 -2,2 2,2 0 0 0 0.71,1.54 l 8.11,7 a 0.59,0.59 0 0 1 0.21,0.41 0.57,0.57 0 0 1 -0.14,0.44 0.61,0.61 0 0 1 -0.47,0.21 0.57,0.57 0 0 1 -0.39,-0.14 L 5.46,43 A 3.21,3.21 0 0 1 4.34,40.54 3.25,3.25 0 0 1 6.87,37.4 L 7.22,37.32 5.8,24.06 a 2.41,2.41 0 0 0 -1.38,-2 2.46,2.46 0 0 0 -0.91,-0.18 2.32,2.32 0 0 0 -1.63,0.68 2.29,2.29 0 0 0 -0.68,1.62 v 21.25 a 1.82,1.82 0 0 0 0.49,1.25 l 9.64,10.45 a 3.09,3.09 0 0 1 0.81,2.08 V 64 H 22.4 V 52.22 a 1.82,1.82 0 0 0 -0.59,-1.35 z"
         inkscape:connector-curvature="0" /><path
         id="path1192"
         d="m 38.55,13 v 0.34 a 20.46,20.46 0 0 1 0.56,4.15 v 0.4 h 4.3 v -0.45 a 11.64,11.64 0 0 0 -2.13,-5.8 L 41,11.3 40.67,11.56 a 19.07,19.07 0 0 1 -1.94,1.34 z"
         inkscape:connector-curvature="0" /><path
         id="path1194"
         d="m 46.4,30.3 -2.16,-3.52 a 0.61,0.61 0 0 1 0,-0.64 13.91,13.91 0 0 0 1.81,-4.38 0.61,0.61 0 0 1 0.46,-0.44 l 4,-1 v -3.65 l -4,-1 a 0.63,0.63 0 0 1 -0.46,-0.46 14.23,14.23 0 0 0 -1.81,-4.37 0.61,0.61 0 0 1 0,-0.64 L 46.4,6.72 43.79,4.12 40.28,6.27 A 0.66,0.66 0 0 1 39.95,6.36 0.59,0.59 0 0 1 39.63,6.27 14.5,14.5 0 0 0 35.26,4.45 0.6,0.6 0 0 1 34.8,4 l -1,-4 h -3.64 l -1,4 A 0.6,0.6 0 0 1 28.7,4.45 14.5,14.5 0 0 0 24.33,6.27 0.56,0.56 0 0 1 24.02,6.36 0.67,0.67 0 0 1 23.68,6.27 l -3.47,-2.15 -2.61,2.6 2.16,3.52 a 0.61,0.61 0 0 1 0,0.64 14,14 0 0 0 -1.76,4.37 0.64,0.64 0 0 1 -0.45,0.46 l -4,1 v 3.68 l 4,1 a 0.6,0.6 0 0 1 0.46,0.45 14,14 0 0 0 1.81,4.37 0.61,0.61 0 0 1 0,0.64 l -2.22,3.45 2.61,2.6 3.51,-2.15 a 0.62,0.62 0 0 1 0.32,-0.09 0.58,0.58 0 0 1 0.33,0.1 14.46,14.46 0 0 0 4.36,1.8 0.63,0.63 0 0 1 0.47,0.45 l 1,4 h 3.68 l 1,-4 a 0.64,0.64 0 0 1 0.46,-0.45 14.42,14.42 0 0 0 4.37,-1.8 0.56,0.56 0 0 1 0.33,-0.1 0.62,0.62 0 0 1 0.32,0.09 l 3.51,2.15 z M 32.32,31.41 H 31.65 A 12.61,12.61 0 0 1 22.44,27 a 13,13 0 0 1 0,-16.93 12.59,12.59 0 0 1 9.23,-4.44 h 0.67 a 12.57,12.57 0 0 1 9.21,4.43 13,13 0 0 1 0,16.93 12.58,12.58 0 0 1 -9.23,4.42 z"
         inkscape:connector-curvature="0" /><path
         id="path1196"
         d="m 38,11.36 0.17,0.47 0.43,-0.27 c 0.4,-0.25 0.8,-0.54 1.27,-0.9 L 40.24,10.37 39.89,10 a 10.92,10.92 0 0 0 -2.7,-1.93 l -1.37,-0.7 0.84,1.28 A 13.56,13.56 0 0 1 38,11.36 Z"
         inkscape:connector-curvature="0" /><path
         id="path1198"
         d="m 37.89,17.47 a 19.69,19.69 0 0 0 -0.41,-3.32 l -0.1,-0.49 -0.46,0.2 a 12.27,12.27 0 0 1 -3.93,1 h -0.38 v 3 h 5.29 z"
         inkscape:connector-curvature="0" /><path
         id="path1200"
         d="M 36.72,12.6 37.05,12.44 36.93,12.1 C 36.05,9.46 34.71,7.67 33.17,7.1 L 32.61,6.88 v 6.85 h 0.45 a 10.92,10.92 0 0 0 3.66,-1.13 z"
         inkscape:connector-curvature="0" /><path
         id="path1202"
         d="m 25.42,11.56 0.43,0.28 0.17,-0.48 a 13.56,13.56 0 0 1 1.32,-2.67 l 0.84,-1.28 -1.37,0.7 A 10.92,10.92 0 0 0 24.11,10 l -0.33,0.33 0.37,0.29 c 0.46,0.38 0.85,0.69 1.27,0.94 z"
         inkscape:connector-curvature="0" /><path
         id="path1204"
         d="m 27.07,12.1 -0.12,0.34 0.33,0.16 a 10.92,10.92 0 0 0 3.66,1 h 0.45 V 6.84 L 30.83,7.06 C 29.29,7.67 28,9.46 27.07,12.1 Z"
         inkscape:connector-curvature="0" /><path
         id="path1206"
         d="m 24.88,17.5 a 20.46,20.46 0 0 1 0.56,-4.15 V 13 l -0.2,-0.11 A 19.07,19.07 0 0 1 23.3,11.55 L 23,11.3 22.75,11.65 a 11.64,11.64 0 0 0 -2.13,5.8 v 0.45 h 4.3 z"
         inkscape:connector-curvature="0" /><path
         id="path1208"
         d="m 27.08,13.86 -0.46,-0.2 -0.1,0.49 a 19.69,19.69 0 0 0 -0.41,3.32 v 0.43 h 5.29 v -3 h -0.38 a 12.27,12.27 0 0 1 -3.94,-1.04 z"
         inkscape:connector-curvature="0" /><path
         id="path1210"
         d="m 26.11,19.54 a 20.08,20.08 0 0 0 0.41,3.33 l 0.1,0.49 0.46,-0.2 a 12.27,12.27 0 0 1 3.93,-1 h 0.38 v -3 h -5.3 z"
         inkscape:connector-curvature="0" /><path
         id="path1212"
         d="m 25.51,24 -0.07,-0.29 a 21.09,21.09 0 0 1 -0.56,-4.17 v -0.39 h -4.3 v 0.44 a 11.56,11.56 0 0 0 2.14,5.82 l 0.25,0.35 0.34,-0.27 a 16.54,16.54 0 0 1 1.92,-1.33 z"
         inkscape:connector-curvature="0" /><path
         id="path1214"
         d="m 26,25.65 -0.17,-0.48 -0.43,0.28 c -0.43,0.28 -0.85,0.58 -1.27,0.91 l -0.37,0.29 0.33,0.32 a 11.43,11.43 0 0 0 2.7,2 l 1.38,0.72 -0.85,-1.31 A 12.71,12.71 0 0 1 26,25.65 Z"
         inkscape:connector-curvature="0" /><path
         id="path1216"
         d="m 27.28,24.42 -0.33,0.15 0.12,0.34 c 0.88,2.64 2.22,4.43 3.76,5.05 l 0.56,0.23 v -6.85 h -0.45 a 11.29,11.29 0 0 0 -3.66,1.08 z"
         inkscape:connector-curvature="0" /><path
         id="path1218"
         d="m 38.58,25.45 -0.43,-0.28 -0.17,0.48 a 12.71,12.71 0 0 1 -1.32,2.69 l -0.85,1.31 1.38,-0.72 a 11.43,11.43 0 0 0 2.7,-2 l 0.33,-0.32 -0.37,-0.29 C 39.43,26 39,25.73 38.58,25.45 Z"
         inkscape:connector-curvature="0" /><path
         id="path1220"
         d="m 39.12,19.51 a 21.09,21.09 0 0 1 -0.56,4.17 l -0.07,0.29 0.26,0.16 a 16.54,16.54 0 0 1 1.92,1.33 l 0.34,0.27 0.25,-0.35 a 11.56,11.56 0 0 0 2.14,-5.82 v -0.44 h -4.3 z"
         inkscape:connector-curvature="0" /><path
         id="path1222"
         d="m 36.92,23.16 0.46,0.2 0.1,-0.49 a 20.08,20.08 0 0 0 0.41,-3.33 v -0.42 h -5.3 v 3 h 0.38 a 12.27,12.27 0 0 1 3.95,1.04 z"
         inkscape:connector-curvature="0" /><path
         id="path1224"
         d="m 37.05,24.57 -0.33,-0.15 a 11.29,11.29 0 0 0 -3.66,-1 h -0.45 v 6.85 l 0.56,-0.23 c 1.54,-0.62 2.88,-2.41 3.76,-5.05 z"
         inkscape:connector-curvature="0" /></g></g></svg>