<?xml version="1.0" encoding="UTF-8" standalone="no"?>
<svg
   xmlns:dc="http://purl.org/dc/elements/1.1/"
   xmlns:cc="http://creativecommons.org/ns#"
   xmlns:rdf="http://www.w3.org/1999/02/22-rdf-syntax-ns#"
   xmlns:svg="http://www.w3.org/2000/svg"
   xmlns="http://www.w3.org/2000/svg"
   xmlns:sodipodi="http://sodipodi.sourceforge.net/DTD/sodipodi-0.dtd"
   xmlns:inkscape="http://www.inkscape.org/namespaces/inkscape"
   version="1.1"
   x="0px"
   y="0px"
   viewBox="0 0 800.22126 313.20288"
   enable-background="new 0 0 100 100"
   xml:space="preserve"
   id="svg2349"
   sodipodi:docname="brain_wires.svg"
   width="800.22125"
   height="313.20288"
   inkscape:version="0.92.5 (2060ec1f9f, 2020-04-08)"><metadata
   id="metadata2355"><rdf:RDF><cc:Work
       rdf:about=""><dc:format>image/svg+xml</dc:format><dc:type
         rdf:resource="http://purl.org/dc/dcmitype/StillImage" /><dc:title></dc:title></cc:Work></rdf:RDF></metadata><defs
   id="defs2353" /><sodipodi:namedview
   pagecolor="#ffffff"
   bordercolor="#666666"
   borderopacity="1"
   objecttolerance="10"
   gridtolerance="10"
   guidetolerance="10"
   inkscape:pageopacity="0"
   inkscape:pageshadow="2"
   inkscape:window-width="1868"
   inkscape:window-height="1016"
   id="namedview2351"
   showgrid="false"
   fit-margin-top="0"
   fit-margin-left="0"
   fit-margin-right="0"
   fit-margin-bottom="0"
   inkscape:zoom="1.676"
   inkscape:cx="415.10325"
   inkscape:cy="166.7147"
   inkscape:window-x="52"
   inkscape:window-y="27"
   inkscape:window-maximized="1"
   inkscape:current-layer="svg2349" /><rect
   style="opacity:1;fill:#ffffff;fill-opacity:1;stroke:none;stroke-width:1.57871783;stroke-miterlimit:4;stroke-dasharray:none;stroke-opacity:1"
   id="rect2361"
   width="798.64252"
   height="311.62418"
   x="0.78935891"
   y="0.78935891" /><path
   d="m 383.48518,237.26612 c -13.42866,0 -26.13145,-4.35524 -37.01956,-11.97691 -9.07342,4.35524 -18.87272,6.53286 -29.03495,6.53286 -23.22796,0 -42.46361,-11.61398 -51.1741,-30.12376 -1.45174,-0.36294 -2.90349,-0.72587 -4.35524,-1.08881 -11.25104,-2.9035 -19.23565,-14.51748 -21.41327,-29.76082 -2.54056,-18.14685 3.62937,-41.73774 22.86502,-54.80347 2.54056,-16.332157 9.7993,-28.672007 20.6874,-34.841937 5.44405,-3.26643 13.06573,-5.44405 22.13915,-6.16993 1.81469,-9.07342 5.44405,-15.24334 11.97692,-20.32446 11.25104,-8.71048 21.05033,-9.43636 29.76082,-2.54056 3.62937,-2.54056 7.62167,-4.71818 12.33985,-6.16992 7.62168,-2.54056 14.15454,-3.99231 19.96153,-3.99231 7.62167,0 14.15454,2.17762 19.96153,6.53286 9.07342,-6.16992 19.96152,-7.25873 32.66431,-2.90349 0.72588,0.36294 0,0 0.72588,0.36294 5.80699,-0.72588 11.97691,0 18.87271,1.45174 6.8958,1.81469 11.97692,5.80699 15.24335,12.33986 7.25874,-0.36294 14.15454,2.90349 23.59089,10.52517 6.16994,5.08111 11.61398,11.97691 15.24337,19.59859 21.41325,4.71818 35.93072,25.405577 38.47131,43.189477 0.36293,3.26643 0.36293,6.16993 -0.7259,9.07343 17.78392,18.14684 18.87273,42.10067 12.33985,58.06989 -6.16991,14.88041 -18.8727,23.22796 -35.56779,23.22796 -13.7916,0 -28.67203,-6.16992 -37.74544,-15.60628 -1.08881,1.08881 -1.81469,1.81468 -2.54056,2.54055 -1.08881,1.08881 -2.17762,2.9035 -2.9035,3.99231 -6.8958,8.71048 -14.51747,18.87272 -31.21257,18.87272 v 0 c -7.98461,0 -17.05803,-2.54056 -27.5832,-6.8958 -1.08881,1.08881 -2.54055,1.81468 -3.62937,2.54055 -9.43636,5.44406 -20.6874,8.34755 -31.93844,8.34755 z M 353.36142,221.2969 c 8.71049,5.44405 19.23565,8.71049 30.12376,8.71049 v 0 c 9.79929,0 19.23565,-2.54056 27.22026,-6.89581 -2.90349,-1.45174 -6.16992,-3.26643 -9.43635,-5.08111 -17.42097,-9.07342 -29.76083,-10.52517 -38.47131,-10.52517 -2.17762,5.80699 -5.44405,10.52517 -9.43636,13.7916 z m 70.77269,-0.36294 c 8.71048,3.62937 15.96922,5.44406 22.50208,5.44406 v 0 c 13.06573,0 19.23566,-7.98461 25.40558,-16.33216 1.08881,-1.45175 2.17763,-2.9035 3.26644,-3.99231 0.72587,-1.08881 2.17762,-2.17762 3.62937,-3.62937 -1.45175,-2.17762 -1.81469,-3.9923 -1.81469,-5.80699 l -0.72587,-0.36293 v 0 c -3.62937,-0.72588 -4.71818,-1.08881 -6.8958,-1.81469 h -0.36294 c -7.25874,7.62168 -18.87272,9.7993 -34.84194,6.8958 v 0 0 c -3.26643,8.71049 -6.53286,15.24335 -10.16223,19.59859 z M 274.60412,201.69831 c 7.98462,14.15454 23.95384,22.50208 42.82655,22.50208 7.98461,0 15.60629,-1.45174 22.50209,-4.35524 -3.26643,-3.26643 -6.53286,-6.53286 -9.43636,-10.52517 v 0 c -6.53286,0 -11.97692,-0.72587 -17.78391,-2.17762 -7.98461,-2.17762 -15.60628,-5.80699 -22.13914,-11.25104 v 0 0 c -5.807,3.26643 -10.88811,5.08112 -15.96923,5.80699 z m 105.61463,0.36294 c 7.98461,1.81468 15.96922,5.08111 24.67971,9.43635 4.35524,2.54056 8.71048,4.35525 12.70279,6.16993 3.62936,-3.9923 6.53286,-9.79929 9.43635,-18.14684 -2.90349,-0.72588 -5.44405,-1.45175 -7.62167,-2.17762 -6.8958,-2.17762 -9.7993,-8.34755 -11.61398,-14.51748 -14.15454,0.36294 -17.42097,5.08112 -18.50978,9.07343 -1.81468,5.44405 -5.08112,8.71048 -9.07342,10.16223 z m -40.28599,6.8958 c 2.17762,2.90349 4.71818,5.08111 7.25873,7.25873 2.9035,-1.81468 5.44406,-4.71818 7.62168,-8.71048 -2.54056,0 -4.71818,0.36294 -6.8958,0.72587 -2.90349,0.36294 -5.44405,0.36294 -7.98461,0.72588 z m 148.80411,-6.16993 c 7.62168,7.98461 20.68741,13.06573 32.66433,13.06573 7.98459,0 22.13912,-2.54056 29.03494,-18.87272 5.44404,-13.42866 4.71817,-33.02725 -9.07343,-48.63354 -4.71817,5.80699 -12.70279,9.07342 -19.96151,9.7993 l 0.72587,0.72587 c 11.97692,3.62937 18.50976,9.07342 20.68738,15.96922 2.54058,9.07343 2.17765,15.96922 -1.81468,21.05034 -3.62936,5.08112 -10.52517,7.25874 -20.68738,7.25874 -7.25875,0 -14.15457,-1.08881 -28.67204,-3.99231 v 0 h 0.36294 c -1.81468,1.81469 -2.54055,2.9035 -3.26642,3.62937 z M 321.78591,171.57455 c 2.9035,11.61398 7.25874,21.77621 12.70279,30.12376 4.35525,0 8.34755,-0.36294 12.33986,-0.72587 3.26643,-0.36294 6.8958,-0.72588 10.52517,-0.72588 0.72587,-1.81468 1.08881,-3.9923 1.45174,-6.16992 -3.9923,-3.62937 -7.25873,-8.34755 -10.16223,-13.42867 v 0 c -7.25873,-1.81468 -13.42866,-6.53286 -19.23565,-14.15453 -2.17762,1.45174 -4.71818,3.26643 -7.62168,5.08111 z m -25.04264,19.59859 c 5.44405,3.99231 11.25105,6.8958 17.78391,8.71049 3.62937,1.08881 7.62167,1.45174 11.25104,1.81468 -4.35524,-7.25874 -7.62167,-15.96922 -10.16223,-25.40558 -3.99231,2.9035 -7.25874,5.80699 -10.52517,8.34755 -2.9035,2.17762 -5.80699,4.35524 -8.34755,6.53286 z m 68.23213,9.07342 c 0.72588,0 1.45175,0 2.17762,0 -0.72587,-0.36293 -1.08881,-0.72587 -1.81468,-1.08881 -0.36294,1.08881 -0.36294,1.08881 -0.36294,1.08881 z m 131.02021,-6.8958 c 10.16221,2.17762 17.7839,2.9035 23.95384,2.9035 7.62166,0 12.33985,-1.45175 14.51747,-4.35524 2.17762,-2.9035 2.54055,-7.98461 0.36294,-14.51748 -1.08881,-3.99231 -5.44407,-7.25874 -13.06573,-10.16223 0,1.81468 -0.36293,3.62937 -1.08881,5.44405 -3.26645,7.62168 -13.06572,10.88811 -22.50209,14.15454 0,2.17762 -0.72587,4.35524 -2.17762,6.53286 z m -59.88458,1.08881 c 10.52516,1.81469 18.50978,1.08881 23.95383,-2.17762 -7.25874,-1.81468 -14.88041,-3.62937 -21.77621,-5.08111 -0.72588,2.54055 -1.45175,5.08111 -2.17762,7.25873 z m -69.32094,-3.26643 c 3.26643,2.54056 6.53286,3.99231 9.43635,3.99231 v 0 c 1.08881,0 4.35525,0 6.16993,-5.44406 2.90349,-8.71048 10.8881,-13.42866 23.59089,-14.15453 v 0 0 c -0.36293,0 0,0 -0.72587,-3.99231 -0.72587,-4.35524 -1.81468,-8.71048 -2.90349,-13.06572 -5.08112,-3.26644 -9.7993,-7.98462 -14.51748,-14.51748 v 0.36294 0 c -4.71817,16.69509 -10.16223,28.67201 -19.23565,33.75312 v 0 c -0.72587,4.71818 -1.08881,9.07343 -1.81468,13.06573 z m -96.54121,-23.95383 c -2.17762,4.71818 -3.62937,12.70279 0.36294,25.76852 0,0.36293 0.36293,1.08881 0.36293,1.45174 4.35524,0 8.71049,-1.45174 13.7916,-4.35524 -5.44405,-6.16992 -10.52516,-13.7916 -14.51747,-22.86502 z m -7.62168,-41.01187 c -13.06572,11.61398 -17.05803,29.39789 -14.8804,43.91536 1.81468,11.97692 7.62167,21.05034 15.60628,23.5909 -5.80699,-19.59859 -0.36294,-29.76082 3.62937,-34.479 v 0 0 c -3.26643,-10.88811 -4.71818,-22.50209 -4.35525,-33.02726 z m 152.79642,57.34403 c 1.45175,4.35524 3.26643,6.53286 6.16993,7.25873 1.81468,0.72588 4.71818,1.45175 7.62168,2.17763 0.72587,-2.17763 1.45174,-4.35525 2.17762,-7.25874 -6.16993,-1.08881 -11.25105,-1.81468 -15.96923,-2.17762 z m 71.8615,7.98461 c 0.36294,0 0.72587,0.36294 1.08881,0.36294 0.36294,-0.36294 0.72587,-0.72588 0.72587,-1.45175 -0.36293,0.36293 -1.08881,0.72587 -1.81468,1.08881 z m -14.15454,-3.26643 c 1.81469,0.36293 3.62937,0.72587 5.44406,1.45174 2.54055,-3.62937 7.62167,-5.80698 13.42865,-7.62167 -0.36294,-3.99231 -2.54055,-7.62167 -6.89578,-11.61398 -1.81469,-1.45175 -3.62938,-3.26643 -5.08113,-5.08112 -1.81468,5.08112 -2.90349,9.43636 -3.62936,13.06573 -0.72588,3.26643 -1.81469,6.53286 -3.26644,9.7993 z m -33.02725,-8.71049 c 8.34755,1.81469 17.05803,4.35525 25.76852,6.53286 1.45174,-2.54055 2.54055,-5.80698 3.26643,-9.43635 0.72587,-4.71818 2.54056,-10.16223 5.08112,-17.42097 l -6.89581,-0.72587 c -6.16992,1.45174 -13.79159,3.26643 -22.86502,4.35524 -0.72587,2.90349 -1.45175,5.80699 -2.54055,8.71048 -1.81469,7.62168 0,0 -1.81469,7.98461 z m -164.4104,-18.14684 c 3.62937,9.7993 9.07342,18.14684 15.60629,24.6797 2.90349,-2.17761 5.44405,-4.71817 9.07342,-7.25873 3.99231,-3.26643 9.07342,-6.53287 12.70279,-10.52517 v 0 h 0.36294 c -1.08881,-4.35524 -1.45175,-9.07342 -2.17762,-13.7916 -1.08882,-9.07342 -2.17762,-17.42097 -3.26643,-25.04264 -4.71818,-7.25874 -9.43636,-11.25105 -14.51748,-13.06573 -2.54056,1.81468 -3.99231,3.62937 -3.99231,5.44405 -0.36293,1.45175 0.36294,2.9035 1.81469,4.35524 12.33985,14.88041 11.61398,24.67971 9.07342,30.12376 -2.54056,5.08112 -7.62167,7.62168 -11.25104,7.62168 -2.17762,0 -3.99231,-0.72588 -5.08112,-1.81469 -2.17762,-1.81468 -5.44405,-2.17762 -8.34755,-0.72587 z m 82.38667,19.96153 c 0.72587,1.08881 1.45175,2.17762 2.54056,3.26643 0,-1.08881 0.36294,-2.17762 0.36294,-3.62937 -0.36294,0 0.36293,0 0,0 -0.72588,0.36294 -2.54056,0.36294 -2.9035,0.36294 z m 127.39084,-21.05034 c 1.08881,1.45175 2.54055,2.90349 3.9923,4.35524 5.44407,4.71818 8.34756,9.43636 9.43636,14.51748 l 0.72588,-0.36294 v 0 c 6.53284,-2.17762 13.06572,-5.08112 14.51747,-9.07342 0.72587,-1.45175 0.72587,-2.9035 0,-5.08112 -8.34756,-1.81468 -18.50977,-3.26643 -28.67201,-4.35524 z M 413.246,175.92979 c 5.44405,0.36294 11.97692,1.08881 19.59859,2.54056 0.72588,-2.54056 1.45175,-5.44405 2.17762,-8.34755 0.72588,-2.17762 1.08882,-4.35524 1.81469,-6.53286 -5.08112,0.36294 -10.16223,0.72587 -15.24335,0.72587 h -0.72587 c -3.62937,0 -6.8958,-0.36293 -10.16224,-1.45174 0.72588,2.54055 1.08882,5.08111 1.45175,7.62167 0.36294,1.81468 0.72588,3.62937 1.08881,5.44405 z m -59.1587,-1.81468 c 1.45174,0.36294 3.26643,0.36294 5.08111,0 0.72587,0 1.81469,-0.36294 2.54056,-0.36294 v 0 c 0.72587,-8.71048 1.08881,-19.23565 2.90349,-25.76852 -5.44405,2.17763 -10.52516,4.71818 -15.24334,7.25874 0.36293,6.16993 1.81468,12.70279 4.71818,18.87272 z m -18.14685,-11.61398 c 2.9035,3.62937 5.80699,6.53286 9.07343,8.34755 -1.45175,-3.99231 -2.17763,-7.98461 -2.54056,-12.33985 -2.54056,1.45174 -4.71818,2.54055 -6.53287,3.9923 z m 37.74544,-18.14684 c -2.9035,5.08111 -3.99231,14.51747 -4.71818,24.6797 5.08111,-5.80699 8.71048,-15.96922 11.61398,-26.85732 -2.17762,0.36293 -4.35525,1.08881 -6.8958,2.17762 z m -55.89228,1.81468 c 0.36294,2.54056 0.72587,4.71818 1.08881,7.25874 0.36294,3.62937 1.08881,6.8958 1.81469,10.16223 1.81468,-1.08881 3.62936,-2.54056 5.08111,-3.62937 -3.26643,-3.9923 -5.80699,-9.07342 -7.98461,-13.7916 z m 90.37128,7.98461 c 3.9923,2.17762 8.34755,3.26643 12.70279,3.26643 h 0.36293 c 5.80699,0 11.61398,-1.08881 17.42097,-1.81468 0,-0.36294 0.36294,-1.81468 0.36294,-1.81468 v 0 0.72587 c -8.34755,-1.45175 -14.15454,-3.26643 -17.78391,-5.80699 -6.16992,-3.99231 -6.16992,-11.25104 -5.08111,-17.05803 -7.25874,1.45174 -14.15454,3.26643 -20.6874,5.44405 7.25873,4.35524 10.52516,11.61398 12.70279,17.05803 z m -92.91184,-26.85733 c 2.9035,4.71818 5.80699,9.7993 8.34755,14.88042 2.54056,4.71818 5.08112,9.79929 7.98461,14.51747 3.26643,-2.17762 6.8958,-3.99231 10.16223,-5.80699 v 0 c 0.36294,-10.16223 3.62937,-19.23565 9.43636,-30.12376 v 0 h -0.36294 c -5.80698,-1.08881 -9.43635,-3.9923 -11.25104,-8.34755 -1.08881,-3.26643 -2.54056,-6.53286 -3.26643,-9.43636 -8.34755,1.45175 -16.33216,2.9035 -23.5909,5.08112 1.08881,5.08112 1.81469,11.61398 2.54056,19.23565 z m -27.5832,28.67202 c 0.36294,0 1.08881,0.36293 1.45175,0.36293 1.45175,0 3.62937,-1.08881 4.71818,-3.26643 1.08881,-2.17762 2.54056,-9.07342 -8.34755,-22.13915 -2.54056,-3.26643 -3.62937,-6.53286 -3.26643,-10.16223 0.36294,-1.81468 1.08881,-3.26643 2.17762,-5.08112 -1.81468,0.36294 -3.62937,0.72588 -5.80699,1.45175 -2.9035,1.08881 -5.80699,2.17762 -8.34755,3.62937 -1.08881,10.88811 0,22.50209 3.26643,33.75313 5.08112,-2.17762 10.88811,-1.45175 14.88041,1.81468 z m 201.79289,-2.54056 c 4.71819,0.72587 9.7993,1.08881 14.15453,1.81468 -1.08881,-0.72587 -1.81468,-1.81468 -2.54055,-2.54056 -3.26642,-0.36293 -7.62169,0 -11.61398,0.72588 z m 24.67971,-1.81469 c 6.89581,0.72588 16.69508,-1.81468 21.05034,-7.62167 -6.16994,-5.44405 -13.79159,-9.43636 -22.86502,-12.70279 -1.08881,5.08111 -2.54056,9.43636 -4.71817,13.06573 -0.36294,0.72587 -1.08881,1.81468 -1.08881,2.54056 2.90349,0.72587 5.44404,2.54055 7.62166,4.71817 z m -65.69157,-2.54055 c 6.16993,0.72587 12.70279,1.45174 18.50978,2.17762 1.45174,-0.36294 2.90349,-0.72588 4.35524,-1.08881 v 0 c -2.54056,-6.8958 -3.99231,-14.88042 -4.71818,-25.04265 -2.90349,0 -6.16993,0.36294 -9.07342,0.36294 -3.26643,6.53286 -6.16993,14.15454 -9.07342,23.5909 z m 25.40558,-23.95384 c 0.72587,9.43636 2.17762,17.05804 4.71818,23.22796 0,0 0,0 0.36294,0 l 1.45174,-2.90349 c 2.9035,-6.53287 5.80699,-13.06573 7.98461,-19.23566 -4.71817,-0.72587 -9.43635,-1.08881 -14.51747,-1.08881 z m -49.72235,5.08112 c -2.54056,10.16223 0.36294,11.97692 1.08881,12.70279 2.90349,1.81468 8.34755,3.62937 15.96922,5.08111 2.54056,-8.34754 5.08112,-15.60628 7.98461,-21.77621 -7.98461,1.08881 -16.33216,2.17762 -25.04264,3.99231 z m -64.23983,-9.07342 c -5.80698,7.98461 -9.43635,16.69509 -10.52516,25.40558 6.16992,-2.9035 12.70279,-5.80699 19.59859,-8.34755 2.90349,-3.62937 6.53286,-5.44405 11.25104,-5.44405 -2.17762,-3.99231 -4.35524,-8.34755 -6.53286,-13.42867 -5.08112,1.08881 -9.7993,1.81469 -13.79161,1.81469 z m 135.7384,5.80699 c -2.17765,6.16992 -5.08113,13.06572 -7.98462,19.59859 3.26642,-0.72588 6.89581,-1.08881 10.16224,-1.08881 l 1.81468,-0.36294 v 0 c 0.36293,-1.45175 0.72587,-2.90349 1.81468,-4.71818 1.81468,-3.26643 3.26642,-7.25874 3.99229,-11.61398 -2.90349,-0.72587 -6.53285,-1.45175 -9.79927,-1.81468 z m 17.78389,-3.26644 c 9.43637,2.9035 17.42096,7.25874 24.31678,12.70279 0,-0.72587 0,-1.45174 0,-2.17761 -2.17762,-13.79161 -12.70279,-29.76083 -27.5832,-35.567817 2.54055,8.347547 3.62936,16.695097 3.26642,25.042637 z m -122.30971,7.25874 v 0 c 8.71048,-2.54056 17.7839,-4.71818 27.22026,-6.8958 2.17762,-6.16992 5.08111,-13.06573 8.34755,-20.32446 -3.99231,1.08881 -8.34755,2.54056 -12.33986,3.9923 -6.53286,2.17762 -13.06572,3.99231 -19.59859,6.16993 -0.72587,3.26643 -1.45175,6.16993 -2.17762,9.43636 -0.36293,2.54056 -1.08881,5.08111 -1.45174,7.62167 z m -9.7993,-13.42866 c 1.45175,2.90349 2.54056,5.44405 3.62937,7.98461 0.36293,-1.45175 0.72587,-2.54056 0.72587,-3.9923 0.36294,-1.81469 0.72588,-3.62937 1.08881,-5.44406 v 0 0 c -1.81468,0.36294 -3.62936,1.08881 -5.44405,1.45175 z m 54.80347,-16.33216 c -0.72588,1.81468 -1.45175,3.26643 -2.17763,5.08112 -2.54055,5.80699 -5.08111,11.25104 -7.25873,16.33215 9.07342,-1.81468 17.7839,-2.90349 26.13145,-3.62936 h -0.36294 c 3.99231,-6.8958 9.07343,-12.33986 12.70279,-16.6951 v -0.36294 c 0,-2.540557 0.36294,-4.718177 0.36294,-7.258727 -9.07342,0.72587 -19.96153,3.62936 -29.39788,6.532857 z m 61.69927,18.50978 c 2.90348,0.36294 5.80697,1.08881 8.71049,1.81469 0.36293,-8.34755 -1.45177,-17.05804 -4.7182,-25.042647 -2.17761,-0.36294 -4.35523,-0.36294 -6.53285,0 5.08111,7.258737 3.9923,17.058027 2.54056,23.227957 z m -24.31678,-1.81468 c 5.80699,0 11.61399,0.36293 16.69509,1.08881 3.26642,-12.70279 0,-17.78391 -3.62936,-20.687407 -4.35524,1.45175 -9.07342,3.992307 -13.42867,7.258737 0.36294,3.99231 0.36294,7.98461 0.36294,12.33986 z m -7.25873,-5.80699 c -1.45175,1.81468 -2.9035,3.62936 -4.35525,5.80699 1.45175,0 2.9035,0 4.35525,0 0,-1.81469 0,-3.99231 0,-5.80699 z m -165.13628,0 c 2.17763,1.08881 3.99231,2.54055 5.44406,4.35524 -0.36294,-2.17762 -0.36294,-4.35524 -0.72588,-6.16993 -1.45174,0.72587 -2.90349,1.08881 -4.71818,1.81469 z m 42.82655,-10.16224 c 0.72588,2.54056 1.81469,5.08112 2.9035,7.98461 0.36293,1.08881 1.45175,3.99231 9.43636,4.35525 3.26643,-3.99231 6.8958,-7.62168 10.8881,-10.88811 l -0.72587,-1.81468 c -5.44405,-1.08882 -13.42866,-0.72588 -22.50209,0.36293 z m 26.13146,8.34755 c -1.08881,1.08881 -2.17762,2.17762 -3.26643,2.9035 1.45174,-0.36294 2.54055,-0.36294 3.9923,-0.72588 -0.72587,-2.17762 -0.36293,-1.45175 -0.72587,-2.17762 z m -64.9657,-27.583197 c -7.62168,0.72587 -13.42866,2.17762 -17.78391,5.08111 -7.62167,4.35525 -13.06572,13.065727 -15.96922,24.316777 1.45175,-0.72588 3.26643,-1.08882 4.71818,-1.81469 5.80699,-1.81469 10.88811,-2.17762 15.60629,-1.45175 v 0 h 0.36293 c 3.62937,-2.17762 6.16993,-3.9923 13.42867,-5.80699 v 0 0 c -0.36294,-8.347537 -0.72588,-14.880407 -0.36294,-20.324457 z m 70.77269,22.502077 c 0.72587,1.81469 1.45174,3.99231 2.54056,5.80699 3.26643,-0.72587 6.89579,-1.81468 10.8881,-2.90349 3.9923,-15.606287 8.71048,-31.575507 16.33216,-43.552417 -1.81468,-2.54056 -3.62937,-4.71818 -5.44405,-6.53287 -3.26644,2.9035 -5.80699,6.16993 -8.71049,9.43636 -4.35524,5.44405 -8.71048,10.52517 -14.51747,13.06573 -2.54056,1.08881 -6.16993,2.17762 -10.16223,2.54055 1.45174,3.62937 3.26643,7.62168 4.71817,11.25105 2.17763,0.72587 5.08112,1.81468 6.16993,4.71818 0.36294,2.177617 -0.36294,4.355237 -1.81468,6.169917 z m 33.75312,-33.753127 c -5.44405,9.43636 -9.43635,21.77622 -12.70279,34.116067 5.08112,-1.45175 10.16224,-3.26643 15.24335,-4.71818 6.16993,-1.814677 12.33986,-3.992297 18.50978,-5.806987 2.9035,-6.16993 5.44406,-12.70279 7.25874,-18.50978 -2.17762,1.08881 -3.62937,2.17762 -5.08112,2.9035 -3.62936,2.17762 -6.16992,3.62936 -9.43636,3.62936 -5.08111,0 -9.07342,-3.9923 -13.7916,-11.61398 z m -96.90414,10.52518 c -0.36293,4.71817 -0.36293,10.8881 0,18.509767 6.8958,-1.814677 14.51748,-3.629357 22.13915,-4.718177 -1.08881,-4.71817 -1.45174,-9.07342 -1.45174,-13.06572 -6.89581,-0.36294 -14.15454,-0.72587 -20.68741,-0.72587 z m 160.41809,12.33985 c 0,0.72587 0,1.81468 0,2.54056 1.08882,-0.72588 2.54056,-1.45175 3.62937,-2.17762 -1.08881,-0.36294 -2.17762,-0.36294 -3.62937,-0.36294 z M 340.65863,83.017953 c 0,3.62937 0.72588,7.25874 1.45175,11.61399 7.98461,-1.08882 15.60629,-1.45175 21.41327,-1.08882 -1.45174,-3.26643 -2.54055,-6.53286 -3.9923,-9.79929 -6.16993,0.36293 -12.33986,0 -18.87272,-0.72588 z m 105.61463,-10.16223 c -1.08881,6.16993 -3.62937,12.70279 -6.53287,19.59859 10.88811,-2.90349 19.23566,-4.71818 25.76852,-5.44405 -0.36294,-6.53286 -0.72587,-13.7916 -2.54056,-19.59859 -2.90349,0.72587 -6.53286,1.81469 -10.8881,3.26643 -2.17762,1.08881 -3.62937,1.45175 -5.80699,2.17762 z m 26.85732,14.15454 c 1.81469,0 3.62937,0.36294 5.44406,0.72587 3.62937,0.72588 6.53287,1.81469 9.07342,2.9035 v 0 0 c 3.26642,-0.72587 6.53287,-1.08881 10.16224,-1.45175 -2.90349,-5.08112 -6.89582,-9.43636 -11.25105,-13.06573 -7.62167,-6.16992 -11.97692,-8.34754 -15.96922,-8.71048 1.45174,5.80699 2.17762,12.70279 2.54055,19.59859 z M 341.02157,76.122153 c 5.44405,0.36294 10.52517,0.72588 14.88041,0.72588 -2.90349,-6.16993 -5.80699,-10.88811 -8.71049,-14.51748 -3.26643,3.62937 -5.44405,7.98462 -6.16992,13.7916 z m 11.97692,-18.87271 c 3.62936,4.35524 7.25873,10.52517 10.8881,18.87271 4.35524,-0.36293 7.62167,-1.08881 10.16223,-2.17762 3.99231,-1.81468 7.98461,-6.53286 11.97692,-11.25104 2.54056,-3.26643 5.44405,-6.53286 8.34755,-9.43636 -4.35525,-2.54055 -9.07343,-3.9923 -14.15454,-3.9923 -5.08112,0 -10.52517,1.08881 -17.42097,3.62937 -3.99231,1.08881 -7.25874,2.90349 -9.79929,4.35524 z m 60.97339,7.62167 c 2.90349,4.71818 6.8958,10.88811 9.07342,10.88811 1.08881,0 3.26643,-1.08881 5.80699,-2.54056 2.90349,-1.45175 6.16992,-3.62937 10.52517,-5.44405 0.72587,-9.43636 -3.26643,-12.70279 -7.25874,-14.51748 -6.53286,1.08881 -12.70279,5.08112 -18.14684,11.61398 z m -80.57198,10.52517 v 0 c 1.0888,-7.25874 3.9923,-13.42866 8.71048,-18.50978 -5.80699,-3.9923 -11.97692,-2.90349 -19.59859,3.26643 -4.71818,3.62937 -7.25874,7.98461 -8.71049,14.51748 6.16993,0 13.42867,0.36293 19.5986,0.72587 z m 110.3328,-22.50208 c 2.17762,3.26643 3.26643,7.25873 3.26643,11.97691 h 0.36294 v 0 c 0,0 0,0 2.54056,-0.72587 3.62937,-1.45175 6.8958,-2.54056 10.16223,-3.26643 -2.17762,-3.26643 -5.44405,-5.44406 -9.43636,-6.53287 -2.54056,-0.72587 -4.71818,-1.08881 -6.8958,-1.45174 z m -33.75313,5.08111 v 0 c 3.26643,-2.90349 6.16993,-5.80699 9.7993,-7.62167 -5.08112,-0.36294 -9.7993,0.72587 -13.79161,3.26643 1.08882,1.45175 2.54056,2.90349 3.99231,4.35524 z"
   id="path2343"
   style="opacity:0.5;fill:#006680;stroke-width:3.62936854"
   inkscape:connector-curvature="0" /><text
   xml:space="preserve"
   style="font-style:normal;font-variant:normal;font-weight:normal;font-stretch:normal;font-size:145.17474365px;line-height:1.25;font-family:'Open Sans';-inkscape-font-specification:'Open Sans';letter-spacing:0px;word-spacing:0px;fill:#000000;fill-opacity:1;stroke:none;stroke-width:3.62936854"
   x="254.08434"
   y="244.30399"
   id="text2359"><tspan
     sodipodi:role="line"
     x="254.08434"
     y="244.30399"
     style="font-style:normal;font-variant:normal;font-weight:300;font-stretch:normal;font-size:77.42652893px;line-height:1.25;font-family:Montserrat;-inkscape-font-specification:'Montserrat Light';fill:#000000;stroke-width:3.62936854"
     id="tspan854">NMIND</tspan></text>

<text
   xml:space="preserve"
   style="font-style:normal;font-variant:normal;font-weight:normal;font-stretch:normal;font-size:145.17474365px;line-height:1.25;font-family:'Open Sans';-inkscape-font-specification:'Open Sans';letter-spacing:0px;word-spacing:0px;fill:#000000;fill-opacity:1;stroke:none;stroke-width:3.62936854"
   x="271.47089"
   y="271.40326"
   id="text2359-3"><tspan
     sodipodi:role="line"
     x="271.47089"
     y="271.40326"
     style="font-style:normal;font-variant:normal;font-weight:300;font-stretch:normal;font-size:24px;line-height:1.25;font-family:Montserrat;-inkscape-font-specification:'Montserrat Light';fill:#000000;stroke-width:3.62936854"
     id="tspan854-6">Align. Certify. Engage.</tspan></text>
</svg>