<?xml version="1.0" encoding="UTF-8" standalone="no"?>
<svg
   xmlns:dc="http://purl.org/dc/elements/1.1/"
   xmlns:cc="http://creativecommons.org/ns#"
   xmlns:rdf="http://www.w3.org/1999/02/22-rdf-syntax-ns#"
   xmlns:svg="http://www.w3.org/2000/svg"
   xmlns="http://www.w3.org/2000/svg"
   xmlns:sodipodi="http://sodipodi.sourceforge.net/DTD/sodipodi-0.dtd"
   xmlns:inkscape="http://www.inkscape.org/namespaces/inkscape"
   version="1.1"
   x="0px"
   y="0px"
   viewBox="0 0 490 150"
   enable-background="new 0 0 128 128"
   xml:space="preserve"
   id="svg917"
   sodipodi:docname="engage.svg"
   width="490"
   height="150"
   inkscape:version="0.92.5 (2060ec1f9f, 2020-04-08)"
   inkscape:export-filename="/home/Gregory.Kiar/code/nmind/nmind.github.io/assets/images/engage.png"
   inkscape:export-xdpi="107.76"
   inkscape:export-ydpi="107.76"><metadata
     id="metadata923"><rdf:RDF><cc:Work
         rdf:about=""><dc:format>image/svg+xml</dc:format><dc:type
           rdf:resource="http://purl.org/dc/dcmitype/StillImage" /><dc:title></dc:title></cc:Work></rdf:RDF></metadata><defs
     id="defs921" /><sodipodi:namedview
     pagecolor="#ffffff"
     bordercolor="#666666"
     borderopacity="1"
     objecttolerance="10"
     gridtolerance="10"
     guidetolerance="10"
     inkscape:pageopacity="0"
     inkscape:pageshadow="2"
     inkscape:window-width="1868"
     inkscape:window-height="1136"
     id="namedview919"
     showgrid="false"
     fit-margin-top="0"
     fit-margin-left="0"
     fit-margin-right="0"
     fit-margin-bottom="0"
     inkscape:zoom="1.0584505"
     inkscape:cx="15.402859"
     inkscape:cy="-33.873047"
     inkscape:window-x="52"
     inkscape:window-y="27"
     inkscape:window-maximized="1"
     inkscape:current-layer="g1075" /><g
     id="g1075"
     transform="translate(-17.002689)"><text
       id="text927"
       y="91.271996"
       x="177.07303"
       style="font-style:normal;font-variant:normal;font-weight:normal;font-stretch:normal;font-size:40px;line-height:1.25;font-family:Montserrat;-inkscape-font-specification:Montserrat;letter-spacing:0px;word-spacing:0px;fill:#000000;fill-opacity:1;stroke:none"
       xml:space="preserve"><tspan
         style="font-size:74.66666412px"
         y="91.271996"
         x="177.07303"
         id="tspan925"
         sodipodi:role="line">Engage</tspan></text>
<g
       transform="matrix(0.93452237,0,0,0.93452237,-85.898093,133.31288)"
       id="g1063"><path
         style="stroke-width:1.41046047"
         inkscape:connector-curvature="0"
         d="m 203.66461,-110.43011 c 0.23837,-0.13964 0.50918,-0.25248 0.81948,-0.32864 3.16789,-0.77999 5.88444,-2.09877 5.90418,-2.10723 0.25953,-0.42737 0.39493,-1.04374 0.46263,-1.4838 -0.80819,-1.05926 -1.18337,-2.3315 -1.35122,-3.42178 -0.2976,-0.024 -0.69112,-0.44712 -1.11285,-1.95631 -0.57829,-2.06491 0.0353,-2.37098 0.55572,-2.32162 -0.38223,-1.08464 -0.38929,-2.15236 -0.13399,-3.13968 0.2694,-1.16222 0.89,-2.09313 1.58677,-2.81387 0.44006,-0.47392 0.93936,-0.88859 1.46829,-1.2271 0.43019,-0.30184 0.90692,-0.56137 1.42597,-0.73908 v 0 0 c 0.40621,-0.13823 0.83922,-0.2285 1.29621,-0.24965 1.4147,-0.12413 2.48665,0.23413 3.25535,0.69535 1.14952,0.64176 1.58535,1.48945 1.58535,1.48945 0,0 2.89145,0.20593 1.62627,6.33579 v 0 c 0.38928,0.13681 0.66291,0.67561 0.21297,2.28776 -0.55431,1.98311 -1.05925,2.09172 -1.3625,1.88297 -0.17772,1.01412 -0.54303,2.15095 -1.26095,3.12135 0.0719,0.48802 0.2299,1.23274 0.55995,1.6728 0,0 2.63756,1.19325 5.81533,1.97606 0.3103,0.0762 0.58111,0.189 0.81948,0.32864 -2.39638,3.56564 -6.46837,5.91264 -11.08763,5.91264 -4.61644,-0.001 -8.68844,-2.347 -11.08481,-5.91405 z m -19.82684,40.350444 c -0.42173,-0.562774 -0.62343,-1.514835 -0.71511,-2.138258 0.91821,-1.239795 1.38366,-2.69398 1.61075,-3.990193 0.38788,0.266577 1.03246,0.126941 1.74192,-2.407656 0.57688,-2.059272 0.22567,-2.750398 -0.27222,-2.923884 v 0 c 1.6178,-7.836519 -2.07902,-8.100275 -2.07902,-8.100275 0,0 -0.55713,-1.084644 -2.02683,-1.905532 -0.9845,-0.589572 -2.35406,-1.047972 -4.16227,-0.89 -0.58534,0.02821 -1.13824,0.142456 -1.65729,0.320174 v 0 h -0.001 c -0.66433,0.227084 -1.27365,0.558542 -1.82373,0.945009 -0.67561,0.433011 -1.31455,0.963344 -1.87732,1.568432 -0.89141,0.92103 -1.6855,2.111459 -2.02965,3.598084 -0.32723,1.262362 -0.31736,2.626278 0.17066,4.014171 -0.66432,-0.06347 -1.44854,0.327226 -0.71087,2.967608 0.54021,1.92951 1.04233,2.471127 1.42316,2.502157 0.21297,1.394946 0.69394,3.021206 1.7264,4.375249 -0.0875,0.562773 -0.26094,1.34981 -0.59098,1.897069 -0.024,0.01128 -3.49795,1.696784 -7.54738,2.693979 -0.39775,0.09732 -0.74331,0.241189 -1.04797,0.420317 3.06352,4.558609 8.26953,7.558658 14.17513,7.558658 5.9056,0 11.11019,-3.000049 14.17512,-7.558658 -0.30324,-0.179128 -0.65022,-0.322995 -1.04797,-0.420317 -4.06212,-1.000016 -7.43312,-2.526134 -7.43312,-2.526134 z m 82.53168,30.457482 c 0,18.056715 -14.63776,32.6930631 -32.69306,32.6930631 -18.05531,0 -32.69448,-14.6377581 -32.69448,-32.6930631 0,-5.537467 1.37943,-10.75335 3.80825,-15.323242 l -8.56855,-5.616453 c -4.43167,4.978925 -10.88735,8.115789 -18.07646,8.115789 -13.36129,0 -24.19363,-10.832336 -24.19363,-24.193628 0,-13.361292 10.83234,-24.193632 24.19363,-24.193632 5.43873,0 10.45856,1.79552 14.49953,4.825189 l 8.23286,-8.993099 c -3.13263,-3.37663 -5.04945,-7.89575 -5.04945,-12.8648 0,-10.45151 8.47264,-18.92415 18.92415,-18.92415 10.45151,0 18.92415,8.47264 18.92415,18.92415 0,10.45151 -8.47264,18.924142 -18.92415,18.924142 -3.76311,0 -7.2681,-1.102982 -10.21456,-2.997232 l -8.37813,9.15107 c 3.84209,4.282158 6.17923,9.942336 6.17923,16.148362 0,4.457055 -1.20736,8.632018 -3.31035,12.218819 l 8.30056,5.440146 c 5.95214,-8.08617 15.53481,-13.334493 26.34599,-13.334493 18.05671,-0.0014 32.69447,14.636348 32.69447,32.693062 z M 199.0651,-117.86606 c 0,8.66305 7.02268,15.68714 15.68714,15.68714 8.66305,0 15.68714,-7.02268 15.68714,-15.68714 0,-8.66446 -7.02409,-15.68714 -15.68714,-15.68714 -8.66305,0 -15.68714,7.02268 -15.68714,15.68714 z m -0.8632,41.226342 c 0,-11.076346 -8.979,-20.055337 -20.05534,-20.055337 -11.07635,0 -20.05534,8.978991 -20.05534,20.055337 0,11.076346 8.97899,20.055337 20.05534,20.055337 11.07634,0 20.05534,-8.978991 20.05534,-20.055337 z m 62.57507,37.017534 c 0,-14.967806 -12.13419,-27.101997 -27.10199,-27.101997 -14.96781,0 -27.102,12.134191 -27.102,27.101997 0,14.967807 12.1356,27.100587 27.10341,27.100587 14.9678,0 27.10058,-12.13278 27.10058,-27.100587 z m -11.70823,11.330229 c -0.94078,-0.361078 -1.56984,-0.540206 -1.89425,-0.627655 -0.0423,-0.01128 -0.079,-0.02116 -0.11001,-0.02962 -0.079,-0.02116 -0.12694,-0.03526 -0.14246,-0.04231 -0.0832,-0.04513 -4.72081,-1.262362 -6.84779,-2.42035 -0.4993,-0.320175 -0.81383,-0.559953 -0.81383,-0.559953 l -0.19182,-1.62344 c 0,0 6.11998,0.187591 9.02412,-2.778607 0,0 -4.22574,-1.197481 -3.46691,-8.890132 0.76024,-7.692652 -0.94642,-14.447347 -7.12988,-13.87611 0,0 -2.67987,-3.225723 -8.01423,-1.197481 -1.83219,0.696767 -6.74624,2.457022 -6.49658,13.117282 0.24965,10.65885 -3.7885,10.72232 -3.7885,10.72232 0,0 2.08184,3.028259 9.14966,2.966199 l -0.031,1.039509 c -0.008,0.111426 -0.0155,0.222853 -0.0268,0.334279 -0.007,0.07334 -0.0183,0.146688 -0.0324,0.218621 -0.0987,0.07334 -0.37519,0.27363 -0.77153,0.527513 -2.12697,1.156577 -6.76456,2.375215 -6.84778,2.42035 -0.0113,0.0056 -0.0423,0.01552 -0.0903,0.02821 -0.20734,0.05783 -0.75037,0.193233 -1.64037,0.516229 -0.11001,0.03949 -0.22426,0.08322 -0.34415,0.128351 -0.60085,0.228495 -1.33288,0.534565 -2.19891,0.940778 -0.62342,0.293375 -1.11285,0.664326 -1.4979,1.062076 4.13547,5.901367 10.98748,9.760386 18.74078,9.760386 7.84216,0 14.76047,-3.947878 18.88043,-9.963492 -0.3498,-0.320175 -0.77435,-0.616371 -1.29057,-0.85897 -0.83218,-0.390698 -1.54023,-0.686895 -2.12698,-0.913979 z"
         id="path1046" /></g></g></svg>